<svg width="0" height="0" class="hidden">
  <symbol fill="none" xmlns="http://www.w3.org/2000/svg" viewBox="0 0 24 24" id="arrow-more">
    <path d="M23.9996 11.9999C23.9844 11.6099 23.8238 11.159 23.5564 10.8748L13.7382 0.51124C13.1649 -0.167914 12.0623 -0.15421 11.4177 0.457593C10.7732 1.06978 10.7203 2.15336 11.369 2.76095L18.562 10.3633L1.63645 10.3633C0.732822 10.3633 -5.64028e-07 11.0961 -5.24528e-07 11.9997C-4.85027e-07 12.9034 0.732413 13.6362 1.63645 13.6362L18.562 13.6362L11.369 21.2385C10.7203 21.8461 10.7732 22.9346 11.4181 23.5464C12.0627 24.1586 13.1813 24.1613 13.7386 23.4882L23.5567 13.1246C23.8554 12.8073 23.9954 12.4371 24 11.9996L23.9996 11.9999Z" fill="#28A167"/>
  </symbol>
  <symbol fill="none" xmlns="http://www.w3.org/2000/svg" viewBox="0 0 55 54" id="doctor">
    <path d="M38.9443 45.3377C39.8881 45.3377 40.6532 44.5133 40.6532 43.4965C40.6532 42.4796 39.8881 41.6553 38.9443 41.6553C38.0005 41.6553 37.2354 42.4796 37.2354 43.4965C37.2354 44.5133 38.0005 45.3377 38.9443 45.3377Z" fill="#28A167"></path>
    <path d="M18.8894 36.6826C18.0736 35.8668 17.0923 35.3486 16.056 35.3486C14.9865 35.3486 13.9943 35.8668 13.1895 36.7157C14.733 36.385 16.6954 36.2086 18.8894 36.6826Z" fill="#28A167"></path>
    <path d="M54.4564 49.5819C53.1334 40.4532 47.7752 32.7356 40.3994 28.535C40.7412 31.1039 41.0829 35.4808 40.2671 39.3396C41.8988 39.935 43.1005 41.5667 43.1005 43.4961C43.1005 45.9437 41.2593 47.862 38.9441 47.862C36.6288 47.862 34.7876 45.8996 34.7876 43.4961C34.7876 41.4013 36.1547 39.6814 38.0069 39.2073C39.1205 34.665 38.2164 28.7886 37.9628 27.2892C37.6652 27.1569 37.3675 27.0356 37.0588 26.9033C34.5781 29.4722 31.2265 31.0598 27.5 31.0598C23.8617 31.0598 20.5101 29.5163 18.0736 27.0356C17.6877 27.8956 16.96 29.9903 17.0923 33.1215C20.7306 33.8491 23.52 38.3033 23.52 43.6615C23.52 45.635 23.1341 47.6084 22.4064 49.2732C22.0095 50.5301 20.3447 51.0372 19.573 51.0372C18.4153 51.0372 17.4782 50.056 17.4782 48.8102C17.4782 47.5643 18.4264 46.5831 19.573 46.5831C19.9148 46.5831 20.3888 46.6713 20.907 46.8808C21.789 44.334 21.1165 40.8831 20.6975 39.7255C16.5852 37.8402 12.8146 39.1301 11.4365 39.7255C11.0506 40.8831 10.3119 44.0363 11.227 46.8808C11.7452 46.6713 12.2082 46.5831 12.561 46.5831C13.7187 46.5831 14.6558 47.5643 14.6558 48.8102C14.6558 50.056 13.7076 51.0372 12.561 51.0372C11.8334 51.0372 10.2017 50.5632 9.77168 49.4055C8.99992 47.6966 8.61404 45.7232 8.61404 43.6615C8.61404 38.3474 11.3593 33.9373 14.9094 33.1215C14.8212 31.0598 15.0858 29.3509 15.3834 28.1051C7.56666 32.2284 1.91079 40.1555 0.543674 49.5819C0.201897 51.8972 1.91079 53.992 4.10478 53.992H50.8622C53.0893 53.992 54.7981 51.8972 54.4564 49.5819Z" fill="#28A167"></path>
    <path d="M27.5003 29.1416C33.9279 29.1416 39.1538 23.618 39.1538 16.7935C39.1538 15.8453 39.0656 14.9523 38.8562 14.0482C38.8562 14.0482 33.3767 12.3394 27.5003 12.3394C21.635 12.3394 16.1886 14.0482 16.1886 14.0482C16.0122 14.9523 15.8909 15.8453 15.8909 16.7935C15.8468 23.6511 21.0727 29.1416 27.5003 29.1416Z" fill="#28A167"></path>
    <path d="M37.9192 11.4022C38.735 8.18291 39.5068 4.93051 40.2785 1.71119C31.9105 -0.559979 23.0904 -0.559979 14.7334 1.71119C15.5052 4.93051 16.321 8.18291 17.0928 11.4022C23.8952 9.55003 31.1057 9.55003 37.9192 11.4022ZM24.3693 3.98236H26.5523V1.66709H28.4376V3.98236H30.6206V5.95585H28.4376V8.27112H26.5523V5.95585H24.3693V3.98236Z" fill="#28A167"></path>
  </symbol>
  <symbol fill="none" xmlns="http://www.w3.org/2000/svg" viewBox="0 0 52 52" id="flag">
    <path d="M9.66572 0H5.65918V52H9.66572V0Z" fill="#28A167"></path>
    <path d="M11.7593 1.73242V27.3552H46.3409V1.73242H11.7593ZM31.6113 17.0784V21.7864C31.6113 23.1998 30.4635 24.3476 29.0501 24.3476C27.6366 24.3476 26.4889 23.1998 26.4889 21.7864V17.0784H21.7809C20.3675 17.0784 19.2197 15.9307 19.2197 14.5172C19.2197 13.1038 20.3675 11.956 21.7809 11.956H26.4889V7.25869C26.4889 5.84524 27.6366 4.69748 29.0501 4.69748C30.4635 4.69748 31.6113 5.84524 31.6113 7.25869V11.9666H36.3193C37.7327 11.9666 38.8805 13.1144 38.8805 14.5279C38.8805 15.9413 37.7327 17.0891 36.3193 17.0891H31.6113V17.0784Z" fill="#28A167"></path>
  </symbol>
  <symbol fill="none" xmlns="http://www.w3.org/2000/svg" viewBox="0 0 25 18" id="mail">
    <path d="M2.37661 0.867676C2.12745 0.867676 1.88984 0.917204 1.67272 1.00448L12.1417 10.3295C12.5065 10.6548 12.9114 10.6546 13.2756 10.3295L23.7245 1.00448C23.5074 0.917203 23.2698 0.867676 23.0206 0.867676H2.37644H2.37661ZM0.519418 2.4805C0.507636 2.56603 0.5 2.65548 0.5 2.74451V15.2561C0.5 15.5127 0.55411 15.7571 0.64662 15.9794L7.86984 9.03935L0.519418 2.4805ZM24.878 2.4805L17.5469 9.02955L24.7607 15.9696C24.8501 15.7501 24.8975 15.5083 24.8975 15.2561V2.74453C24.8975 2.65573 24.8896 2.56605 24.878 2.48052L24.878 2.4805ZM16.1394 10.2902L14.5266 11.7367C13.5013 12.6523 11.9155 12.6507 10.8903 11.7367L9.27743 10.2998L2.16146 17.1225C2.23106 17.1303 2.3048 17.1321 2.37659 17.1321H23.0207C23.089 17.1321 23.1597 17.129 23.2261 17.1225L16.1391 10.2903L16.1394 10.2902Z" fill="#E5E5E5"></path>
  </symbol>
  <symbol fill="none" xmlns="http://www.w3.org/2000/svg" viewBox="0 0 53 53" id="microscope">
    <path d="M38.7805 43.1763H14.2204C8.79497 43.1764 4.39648 47.5744 4.39648 53.0002H4.39659H48.6044V53.0001C48.6042 47.5746 44.206 43.1763 38.7805 43.1763Z" fill="#28A167"></path>
    <path d="M19.4047 20.1166C21.4393 20.1166 23.0887 18.4672 23.0887 16.4326C23.0887 14.3979 21.4393 12.7485 19.4047 12.7485C17.3701 12.7485 15.7207 14.3979 15.7207 16.4326C15.7207 18.4672 17.3701 20.1166 19.4047 20.1166Z" fill="#28A167"></path>
    <path d="M36.7714 16.4325L37.6395 15.5643L22.878 0.80266L21.1413 2.53924L18.6022 0L15.1289 3.47336L17.6681 6.0125L15.9315 7.74918L17.4966 9.31434C18.1116 9.15047 18.7514 9.06435 19.4047 9.06435C21.3729 9.06435 23.2233 9.83088 24.6149 11.2226C26.0064 12.614 26.7729 14.4642 26.7729 16.4324C26.7729 17.0857 26.6865 17.7256 26.5229 18.3406L30.693 22.5107L31.5613 21.6424L34.1005 24.1817L39.3106 18.9715L36.7714 16.4325Z" fill="#28A167"></path>
    <path d="M35.903 32.9308C32.0666 36.7673 25.8464 36.7673 22.0097 32.9309C19.532 30.4532 18.657 26.982 19.3796 23.8001C17.421 23.7935 15.5804 23.0283 14.1949 21.6426C13.6644 21.1121 13.2253 20.5146 12.8845 19.8696C10.555 26.0028 11.8599 33.201 16.7998 38.1408C17.2858 38.6267 17.7944 39.0763 18.321 39.492L39.5625 39.5153C40.0997 39.0932 40.618 38.6356 41.113 38.1405L35.903 32.9308Z" fill="#28A167"></path>
  </symbol>
  <symbol fill="none" xmlns="http://www.w3.org/2000/svg" viewBox="0 0 20 21" id="phone">
    <path d="M19.5786 17.9003L18.0346 19.4443C17.3502 20.1287 16.4425 20.5009 15.4942 20.5009C15.3452 20.5009 15.1963 20.4914 15.0451 20.4721C11.8249 20.0734 8.2782 18.1452 5.31521 15.182C2.352 12.2211 0.426048 8.67456 0.0276938 5.45428C-0.109153 4.34494 0.265377 3.2572 1.0578 2.46474L2.60181 0.920723C3.16375 0.358782 4.07864 0.358782 4.63809 0.920723L8.03349 4.31612C8.30484 4.58747 8.45609 4.9501 8.45609 5.33417C8.45609 5.71842 8.30718 6.08088 8.03349 6.35223L6.16539 8.22033L12.2788 14.3337L14.1469 12.4656C14.7088 11.9037 15.6212 11.9037 16.1831 12.4656L19.5785 15.861C20.1405 16.4231 20.1405 17.338 19.5785 17.9L19.5786 17.9003Z" fill="#E5E5E5"></path>
  </symbol>
  <symbol fill="none" xmlns="http://www.w3.org/2000/svg" viewBox="0 0 20 22" id="search">
    <path d="M19.6297 18.9163L15.8031 15.0898C17.23 13.49 18.1164 11.3714 18.1164 9.05821C18.1164 4.0643 14.0521 0 9.05821 0C4.0643 0 0 4.0643 0 9.05821C0 14.0521 4.0643 18.1164 9.05821 18.1164C10.831 18.1164 12.474 17.5975 13.8575 16.7328L17.8354 20.7107C18.0732 20.9485 18.3974 21.0782 18.7218 21.0782C19.046 21.0782 19.3704 20.9485 19.6082 20.7107C20.127 20.2135 20.127 19.4135 19.6297 18.9163L19.6297 18.9163ZM2.52934 9.05825C2.52934 5.46952 5.44793 2.52942 9.05817 2.52942C12.6684 2.52942 15.5654 5.46955 15.5654 9.05825C15.5654 12.647 12.6468 15.5871 9.05817 15.5871C5.46955 15.5871 2.52934 12.6685 2.52934 9.05825Z" fill="#E5E5E5"></path>
  </symbol>
</svg>