<svg width="0" height="0" class="hidden">
  <symbol fill="none" xmlns="http://www.w3.org/2000/svg" viewBox="0 0 24 24" id="arrow-more">
    <path d="M23.9996 11.9999C23.9844 11.6099 23.8238 11.159 23.5564 10.8748L13.7382 0.51124C13.1649 -0.167914 12.0623 -0.15421 11.4177 0.457593C10.7732 1.06978 10.7203 2.15336 11.369 2.76095L18.562 10.3633L1.63645 10.3633C0.732822 10.3633 -5.64028e-07 11.0961 -5.24528e-07 11.9997C-4.85027e-07 12.9034 0.732413 13.6362 1.63645 13.6362L18.562 13.6362L11.369 21.2385C10.7203 21.8461 10.7732 22.9346 11.4181 23.5464C12.0627 24.1586 13.1813 24.1613 13.7386 23.4882L23.5567 13.1246C23.8554 12.8073 23.9954 12.4371 24 11.9996L23.9996 11.9999Z" fill="#28A167"/>
  </symbol>
  <symbol fill="none" xmlns="http://www.w3.org/2000/svg" viewBox="0 0 55 54" id="doctor">
    <path d="M38.9443 45.3377C39.8881 45.3377 40.6532 44.5133 40.6532 43.4965C40.6532 42.4796 39.8881 41.6553 38.9443 41.6553C38.0005 41.6553 37.2354 42.4796 37.2354 43.4965C37.2354 44.5133 38.0005 45.3377 38.9443 45.3377Z" fill="#28A167"></path>
    <path d="M18.8894 36.6826C18.0736 35.8668 17.0923 35.3486 16.056 35.3486C14.9865 35.3486 13.9943 35.8668 13.1895 36.7157C14.733 36.385 16.6954 36.2086 18.8894 36.6826Z" fill="#28A167"></path>
    <path d="M54.4564 49.5819C53.1334 40.4532 47.7752 32.7356 40.3994 28.535C40.7412 31.1039 41.0829 35.4808 40.2671 39.3396C41.8988 39.935 43.1005 41.5667 43.1005 43.4961C43.1005 45.9437 41.2593 47.862 38.9441 47.862C36.6288 47.862 34.7876 45.8996 34.7876 43.4961C34.7876 41.4013 36.1547 39.6814 38.0069 39.2073C39.1205 34.665 38.2164 28.7886 37.9628 27.2892C37.6652 27.1569 37.3675 27.0356 37.0588 26.9033C34.5781 29.4722 31.2265 31.0598 27.5 31.0598C23.8617 31.0598 20.5101 29.5163 18.0736 27.0356C17.6877 27.8956 16.96 29.9903 17.0923 33.1215C20.7306 33.8491 23.52 38.3033 23.52 43.6615C23.52 45.635 23.1341 47.6084 22.4064 49.2732C22.0095 50.5301 20.3447 51.0372 19.573 51.0372C18.4153 51.0372 17.4782 50.056 17.4782 48.8102C17.4782 47.5643 18.4264 46.5831 19.573 46.5831C19.9148 46.5831 20.3888 46.6713 20.907 46.8808C21.789 44.334 21.1165 40.8831 20.6975 39.7255C16.5852 37.8402 12.8146 39.1301 11.4365 39.7255C11.0506 40.8831 10.3119 44.0363 11.227 46.8808C11.7452 46.6713 12.2082 46.5831 12.561 46.5831C13.7187 46.5831 14.6558 47.5643 14.6558 48.8102C14.6558 50.056 13.7076 51.0372 12.561 51.0372C11.8334 51.0372 10.2017 50.5632 9.77168 49.4055C8.99992 47.6966 8.61404 45.7232 8.61404 43.6615C8.61404 38.3474 11.3593 33.9373 14.9094 33.1215C14.8212 31.0598 15.0858 29.3509 15.3834 28.1051C7.56666 32.2284 1.91079 40.1555 0.543674 49.5819C0.201897 51.8972 1.91079 53.992 4.10478 53.992H50.8622C53.0893 53.992 54.7981 51.8972 54.4564 49.5819Z" fill="#28A167"></path>
    <path d="M27.5003 29.1416C33.9279 29.1416 39.1538 23.618 39.1538 16.7935C39.1538 15.8453 39.0656 14.9523 38.8562 14.0482C38.8562 14.0482 33.3767 12.3394 27.5003 12.3394C21.635 12.3394 16.1886 14.0482 16.1886 14.0482C16.0122 14.9523 15.8909 15.8453 15.8909 16.7935C15.8468 23.6511 21.0727 29.1416 27.5003 29.1416Z" fill="#28A167"></path>
    <path d="M37.9192 11.4022C38.735 8.18291 39.5068 4.93051 40.2785 1.71119C31.9105 -0.559979 23.0904 -0.559979 14.7334 1.71119C15.5052 4.93051 16.321 8.18291 17.0928 11.4022C23.8952 9.55003 31.1057 9.55003 37.9192 11.4022ZM24.3693 3.98236H26.5523V1.66709H28.4376V3.98236H30.6206V5.95585H28.4376V8.27112H26.5523V5.95585H24.3693V3.98236Z" fill="#28A167"></path>
  </symbol>
  <symbol fill="none" xmlns="http://www.w3.org/2000/svg" viewBox="0 0 52 52" id="flag">
    <path d="M9.66572 0H5.65918V52H9.66572V0Z" fill="#28A167"></path>
    <path d="M11.7593 1.73242V27.3552H46.3409V1.73242H11.7593ZM31.6113 17.0784V21.7864C31.6113 23.1998 30.4635 24.3476 29.0501 24.3476C27.6366 24.3476 26.4889 23.1998 26.4889 21.7864V17.0784H21.7809C20.3675 17.0784 19.2197 15.9307 19.2197 14.5172C19.2197 13.1038 20.3675 11.956 21.7809 11.956H26.4889V7.25869C26.4889 5.84524 27.6366 4.69748 29.0501 4.69748C30.4635 4.69748 31.6113 5.84524 31.6113 7.25869V11.9666H36.3193C37.7327 11.9666 38.8805 13.1144 38.8805 14.5279C38.8805 15.9413 37.7327 17.0891 36.3193 17.0891H31.6113V17.0784Z" fill="#28A167"></path>
  </symbol>
  <symbol fill="none" xmlns="http://www.w3.org/2000/svg" viewBox="0 0 25 18" id="mail">
    <path d="M2.37661 0.867676C2.12745 0.867676 1.88984 0.917204 1.67272 1.00448L12.1417 10.3295C12.5065 10.6548 12.9114 10.6546 13.2756 10.3295L23.7245 1.00448C23.5074 0.917203 23.2698 0.867676 23.0206 0.867676H2.37644H2.37661ZM0.519418 2.4805C0.507636 2.56603 0.5 2.65548 0.5 2.74451V15.2561C0.5 15.5127 0.55411 15.7571 0.64662 15.9794L7.86984 9.03935L0.519418 2.4805ZM24.878 2.4805L17.5469 9.02955L24.7607 15.9696C24.8501 15.7501 24.8975 15.5083 24.8975 15.2561V2.74453C24.8975 2.65573 24.8896 2.56605 24.878 2.48052L24.878 2.4805ZM16.1394 10.2902L14.5266 11.7367C13.5013 12.6523 11.9155 12.6507 10.8903 11.7367L9.27743 10.2998L2.16146 17.1225C2.23106 17.1303 2.3048 17.1321 2.37659 17.1321H23.0207C23.089 17.1321 23.1597 17.129 23.2261 17.1225L16.1391 10.2903L16.1394 10.2902Z" fill="#E5E5E5"></path>
  </symbol>
  <symbol fill="none" xmlns="http://www.w3.org/2000/svg" viewBox="0 0 53 53" id="microscope">
    <path d="M38.7805 43.1763H14.2204C8.79497 43.1764 4.39648 47.5744 4.39648 53.0002H4.39659H48.6044V53.0001C48.6042 47.5746 44.206 43.1763 38.7805 43.1763Z" fill="#28A167"></path>
    <path d="M19.4047 20.1166C21.4393 20.1166 23.0887 18.4672 23.0887 16.4326C23.0887 14.3979 21.4393 12.7485 19.4047 12.7485C17.3701 12.7485 15.7207 14.3979 15.7207 16.4326C15.7207 18.4672 17.3701 20.1166 19.4047 20.1166Z" fill="#28A167"></path>
    <path d="M36.7714 16.4325L37.6395 15.5643L22.878 0.80266L21.1413 2.53924L18.6022 0L15.1289 3.47336L17.6681 6.0125L15.9315 7.74918L17.4966 9.31434C18.1116 9.15047 18.7514 9.06435 19.4047 9.06435C21.3729 9.06435 23.2233 9.83088 24.6149 11.2226C26.0064 12.614 26.7729 14.4642 26.7729 16.4324C26.7729 17.0857 26.6865 17.7256 26.5229 18.3406L30.693 22.5107L31.5613 21.6424L34.1005 24.1817L39.3106 18.9715L36.7714 16.4325Z" fill="#28A167"></path>
    <path d="M35.903 32.9308C32.0666 36.7673 25.8464 36.7673 22.0097 32.9309C19.532 30.4532 18.657 26.982 19.3796 23.8001C17.421 23.7935 15.5804 23.0283 14.1949 21.6426C13.6644 21.1121 13.2253 20.5146 12.8845 19.8696C10.555 26.0028 11.8599 33.201 16.7998 38.1408C17.2858 38.6267 17.7944 39.0763 18.321 39.492L39.5625 39.5153C40.0997 39.0932 40.618 38.6356 41.113 38.1405L35.903 32.9308Z" fill="#28A167"></path>
  </symbol>
  <symbol fill="none" xmlns="http://www.w3.org/2000/svg" viewBox="0 0 20 21" id="phone">
    <path d="M19.5786 17.9003L18.0346 19.4443C17.3502 20.1287 16.4425 20.5009 15.4942 20.5009C15.3452 20.5009 15.1963 20.4914 15.0451 20.4721C11.8249 20.0734 8.2782 18.1452 5.31521 15.182C2.352 12.2211 0.426048 8.67456 0.0276938 5.45428C-0.109153 4.34494 0.265377 3.2572 1.0578 2.46474L2.60181 0.920723C3.16375 0.358782 4.07864 0.358782 4.63809 0.920723L8.03349 4.31612C8.30484 4.58747 8.45609 4.9501 8.45609 5.33417C8.45609 5.71842 8.30718 6.08088 8.03349 6.35223L6.16539 8.22033L12.2788 14.3337L14.1469 12.4656C14.7088 11.9037 15.6212 11.9037 16.1831 12.4656L19.5785 15.861C20.1405 16.4231 20.1405 17.338 19.5785 17.9L19.5786 17.9003Z" fill="#E5E5E5"></path>
  </symbol>
  <symbol fill="none" xmlns="http://www.w3.org/2000/svg" viewBox="0 0 20 22" id="search">
    <path d="M19.6297 18.9163L15.8031 15.0898C17.23 13.49 18.1164 11.3714 18.1164 9.05821C18.1164 4.0643 14.0521 0 9.05821 0C4.0643 0 0 4.0643 0 9.05821C0 14.0521 4.0643 18.1164 9.05821 18.1164C10.831 18.1164 12.474 17.5975 13.8575 16.7328L17.8354 20.7107C18.0732 20.9485 18.3974 21.0782 18.7218 21.0782C19.046 21.0782 19.3704 20.9485 19.6082 20.7107C20.127 20.2135 20.127 19.4135 19.6297 18.9163L19.6297 18.9163ZM2.52934 9.05825C2.52934 5.46952 5.44793 2.52942 9.05817 2.52942C12.6684 2.52942 15.5654 5.46955 15.5654 9.05825C15.5654 12.647 12.6468 15.5871 9.05817 15.5871C5.46955 15.5871 2.52934 12.6685 2.52934 9.05825Z" fill="#E5E5E5"></path>
  </symbol>
  <symbol width="19" height="12" viewBox="0 0 19 12" fill="none" xmlns="http://www.w3.org/2000/svg" id="vk">
    <path d="M16.4327 8.35159C16.4327 8.35159 17.9253 9.82574 18.2945 10.5079C18.3017 10.5177 18.3073 10.5286 18.3112 10.5402C18.4616 10.7922 18.4985 10.9897 18.4247 11.1356C18.3001 11.3765 17.8782 11.4974 17.7352 11.5076H15.097C14.9133 11.5076 14.5312 11.4596 14.0659 11.1384C13.7105 10.89 13.357 10.4811 13.0145 10.0814C12.5032 9.48789 12.061 8.97282 11.6133 8.97282C11.5568 8.9727 11.5006 8.98206 11.4472 9.00051C11.1084 9.10759 10.6782 9.59035 10.6782 10.8762C10.6782 11.2787 10.3607 11.5076 10.1382 11.5076H8.92993C8.51824 11.5076 6.37485 11.3636 4.47424 9.35959C2.14531 6.90605 0.0536216 1.9842 0.0333139 1.94082C-0.09684 1.62236 0.176391 1.44882 0.471775 1.44882H3.13578C3.49301 1.44882 3.60931 1.66482 3.69054 1.85866C3.7847 2.08112 4.13362 2.97097 4.70593 3.97066C5.6327 5.59712 6.20224 6.25897 6.65731 6.25897C6.74281 6.25922 6.82687 6.23693 6.90101 6.19436C7.49547 5.86759 7.3847 3.74451 7.35701 3.30697C7.35701 3.22205 7.35608 2.35897 7.05147 1.94174C6.83362 1.64266 6.46254 1.52636 6.23824 1.48389C6.29824 1.39712 6.42562 1.2642 6.58901 1.18574C6.99608 0.982663 7.73177 0.953125 8.46193 0.953125H8.86716C9.65916 0.964202 9.86408 1.01497 10.1521 1.08789C10.7318 1.22636 10.7429 1.60205 10.6921 2.88143C10.6773 3.24697 10.6616 3.65866 10.6616 4.14328C10.6616 4.24666 10.657 4.36205 10.657 4.47928C10.6395 5.13559 10.6164 5.87497 11.0798 6.17866C11.1399 6.2161 11.2093 6.23593 11.2801 6.23589C11.4407 6.23589 11.9216 6.23589 13.2259 3.99743C13.7982 3.00882 14.2413 1.84297 14.2718 1.75528C14.2976 1.70636 14.3752 1.56882 14.4693 1.51343C14.5363 1.4778 14.6113 1.46 14.6872 1.46174H17.821C18.1625 1.46174 18.3942 1.51343 18.4395 1.64266C18.5152 1.8522 18.4247 2.49189 16.9939 4.42666C16.753 4.74882 16.5416 5.02759 16.3561 5.27128C15.0592 6.97343 15.0592 7.05928 16.4327 8.35159V8.35159Z" fill="white"/>
  </symbol>
  <symbol width="21" height="21" viewBox="0 0 21 21" fill="none" xmlns="http://www.w3.org/2000/svg" id="inst">
    <path d="M10.5 7.875C9.80381 7.875 9.13613 8.15156 8.64384 8.64384C8.15156 9.13613 7.875 9.80381 7.875 10.5C7.875 11.1962 8.15156 11.8639 8.64384 12.3562C9.13613 12.8484 9.80381 13.125 10.5 13.125C11.1962 13.125 11.8639 12.8484 12.3562 12.3562C12.8484 11.8639 13.125 11.1962 13.125 10.5C13.125 9.80381 12.8484 9.13613 12.3562 8.64384C11.8639 8.15156 11.1962 7.875 10.5 7.875ZM10.5 6.125C11.6603 6.125 12.7731 6.58594 13.5936 7.40641C14.4141 8.22688 14.875 9.33968 14.875 10.5C14.875 11.6603 14.4141 12.7731 13.5936 13.5936C12.7731 14.4141 11.6603 14.875 10.5 14.875C9.33968 14.875 8.22688 14.4141 7.40641 13.5936C6.58594 12.7731 6.125 11.6603 6.125 10.5C6.125 9.33968 6.58594 8.22688 7.40641 7.40641C8.22688 6.58594 9.33968 6.125 10.5 6.125ZM16.1875 5.90625C16.1875 6.19633 16.0723 6.47453 15.8671 6.67965C15.662 6.88477 15.3838 7 15.0938 7C14.8037 7 14.5255 6.88477 14.3204 6.67965C14.1152 6.47453 14 6.19633 14 5.90625C14 5.61617 14.1152 5.33797 14.3204 5.13285C14.5255 4.92773 14.8037 4.8125 15.0938 4.8125C15.3838 4.8125 15.662 4.92773 15.8671 5.13285C16.0723 5.33797 16.1875 5.61617 16.1875 5.90625ZM10.5 3.5C8.33525 3.5 7.98175 3.50613 6.97463 3.55075C6.28863 3.58313 5.82837 3.675 5.40137 3.84125C5.02162 3.98825 4.74775 4.16412 4.45637 4.45637C4.18251 4.72097 3.97193 5.04401 3.84037 5.40137C3.67412 5.83012 3.58225 6.2895 3.55075 6.97463C3.50525 7.94063 3.5 8.27838 3.5 10.5C3.5 12.6648 3.50613 13.0182 3.55075 14.0254C3.58313 14.7105 3.675 15.1716 3.84037 15.5977C3.98913 15.9784 4.16412 16.2522 4.45463 16.5428C4.7495 16.8368 5.02338 17.0126 5.39963 17.1579C5.83187 17.325 6.29213 17.4177 6.97463 17.4492C7.94063 17.4947 8.27838 17.5 10.5 17.5C12.6648 17.5 13.0182 17.4939 14.0254 17.4492C14.7096 17.4169 15.1708 17.325 15.5977 17.1596C15.9766 17.0118 16.2522 16.8359 16.5428 16.5454C16.8376 16.2505 17.0135 15.9766 17.1588 15.6004C17.325 15.169 17.4177 14.7079 17.4492 14.0254C17.4947 13.0594 17.5 12.7216 17.5 10.5C17.5 8.33525 17.4939 7.98175 17.4492 6.97463C17.4169 6.29038 17.325 5.82837 17.1588 5.40137C17.0269 5.04438 16.8167 4.72147 16.5436 4.45637C16.2791 4.18237 15.9561 3.97177 15.5986 3.84037C15.1699 3.67412 14.7096 3.58225 14.0254 3.55075C13.0594 3.50525 12.7216 3.5 10.5 3.5ZM10.5 1.75C12.8774 1.75 13.174 1.75875 14.1067 1.8025C15.0386 1.84625 15.673 1.99238 16.2312 2.20938C16.8087 2.43163 17.2953 2.73262 17.7817 3.21825C18.2267 3.65566 18.571 4.18477 18.7906 4.76875C19.0068 5.32612 19.1538 5.96137 19.1975 6.89325C19.2386 7.826 19.25 8.12262 19.25 10.5C19.25 12.8774 19.2413 13.174 19.1975 14.1067C19.1538 15.0386 19.0068 15.673 18.7906 16.2312C18.5716 16.8156 18.2272 17.3448 17.7817 17.7817C17.3442 18.2265 16.8151 18.5708 16.2312 18.7906C15.6739 19.0068 15.0386 19.1538 14.1067 19.1975C13.174 19.2386 12.8774 19.25 10.5 19.25C8.12262 19.25 7.826 19.2413 6.89325 19.1975C5.96137 19.1538 5.327 19.0068 4.76875 18.7906C4.18454 18.5714 3.65534 18.2271 3.21825 17.7817C2.77323 17.3444 2.42894 16.8153 2.20938 16.2312C1.99238 15.6739 1.84625 15.0386 1.8025 14.1067C1.76137 13.174 1.75 12.8774 1.75 10.5C1.75 8.12262 1.75875 7.826 1.8025 6.89325C1.84625 5.9605 1.99238 5.327 2.20938 4.76875C2.42833 4.18441 2.7727 3.65516 3.21825 3.21825C3.65546 2.77308 4.18462 2.42876 4.76875 2.20938C5.327 1.99238 5.9605 1.84625 6.89325 1.8025C7.826 1.76137 8.12262 1.75 10.5 1.75Z" fill="white"/>
  </symbol>
  <symbol width="16" height="16" viewBox="0 0 16 16" fill="none" xmlns="http://www.w3.org/2000/svg" id="fb">
    <path d="M4.21705 8.5216H5.97091V15.7419C5.97091 15.8845 6.08642 16 6.22897 16H9.2027C9.34525 16 9.46076 15.8845 9.46076 15.7419V8.55561H11.477C11.6081 8.55561 11.7184 8.45724 11.7333 8.32702L12.0396 5.66885C12.048 5.59572 12.0248 5.52248 11.9759 5.46761C11.9269 5.4127 11.8568 5.38126 11.7832 5.38126H9.46087V3.71499C9.46087 3.2127 9.73132 2.95799 10.2648 2.95799C10.3408 2.95799 11.7832 2.95799 11.7832 2.95799C11.9258 2.95799 12.0413 2.84243 12.0413 2.69992V0.259974C12.0413 0.117419 11.9258 0.00190968 11.7832 0.00190968H9.6906C9.67584 0.0011871 9.64306 0 9.59475 0C9.23165 0 7.96956 0.0712774 6.97261 0.988439C5.86799 2.0048 6.02154 3.22173 6.05824 3.43272V5.38121H4.21705C4.07449 5.38121 3.95898 5.49672 3.95898 5.63928V8.26348C3.95898 8.40604 4.07449 8.5216 4.21705 8.5216Z" fill="white"/>
  </symbol>
</svg>