<svg width="200" height="46" viewBox="0 0 200 46" fill="none" xmlns="http://www.w3.org/2000/svg">
<path d="M12.4676 2.28632C12.4676 1.02362 13.4912 0 14.7539 0H25.1423C26.405 0 27.4287 1.02362 27.4287 2.28632V37.6099C27.4287 38.8726 26.405 39.8962 25.1423 39.8962H14.7539C13.4912 39.8962 12.4676 38.8726 12.4676 37.6099V2.28632Z" fill="#E5E5E5"/>
<path d="M2.28632 12.4676C1.02362 12.4676 5.09288e-07 13.4912 4.54094e-07 14.7539L0 25.1423C-5.51943e-08 26.405 1.02362 27.4287 2.28632 27.4287L37.6099 27.4287C38.8726 27.4287 39.8962 26.405 39.8962 25.1423V14.7539C39.8962 13.4912 38.8726 12.4676 37.6099 12.4676L2.28632 12.4676Z" fill="#E5E5E5"/>
<rect x="2.67969" y="1.25757" width="3.21513" height="8.57369" rx="1.60757" fill="#E9341B"/>
<rect width="3.21513" height="8.57369" rx="1.60757" transform="matrix(-4.37114e-08 1 1 4.37114e-08 0 3.93677)" fill="#E9341B"/>
<path d="M46.024 11.4087C39.0621 11.4087 33.0606 16.1299 31.4601 22.4516H27.6191V12.8891C27.6191 12.3289 27.179 11.8888 26.6189 11.8888H20.3772C19.8171 11.8888 19.377 12.3289 19.377 12.8891V38.8959C19.377 39.4561 19.8171 39.8962 20.3772 39.8962H26.6189C27.179 39.8962 27.6191 39.4561 27.6191 38.8959V29.3334H31.4601C33.0606 35.6551 39.0621 40.3363 46.024 40.3363C54.1461 40.3363 60.9879 33.8946 60.9879 25.8925C60.9879 17.8904 54.1461 11.4087 46.024 11.4087ZM46.024 33.2544C42.1029 33.2544 38.9021 29.9736 38.9021 25.8925C38.9021 21.8114 42.1029 18.4906 46.024 18.4906C49.945 18.4906 53.1058 21.8114 53.1058 25.8925C53.1058 29.9736 49.945 33.2544 46.024 33.2544Z" fill="#E9341B"/>
<path d="M85.6204 18.6506H79.7388C79.1787 18.6506 78.7385 19.0907 78.7385 19.6509V25.8125H72.857V19.6509C72.857 19.0907 72.4169 18.6506 71.8567 18.6506H65.9752C65.415 18.6506 64.9749 19.0907 64.9749 19.6509V38.8959C64.9749 39.4561 65.415 39.8962 65.9752 39.8962H71.8567C72.4169 39.8962 72.857 39.4561 72.857 38.8959V32.6943H78.7385V38.8959C78.7385 39.4561 79.1787 39.8962 79.7388 39.8962H85.6204C86.1805 39.8962 86.6206 39.4561 86.6206 38.8959V19.6509C86.6206 19.0907 86.1805 18.6506 85.6204 18.6506Z" fill="#E9341B"/>
<path d="M110.403 18.6106H106.201C105.521 18.6106 105.201 18.7306 104.641 19.4908C103.721 20.7712 98.8795 27.5329 98.8795 27.5329V19.6109C98.8795 19.0907 98.4394 18.6106 97.8792 18.6106H91.9977C91.4375 18.6106 90.9974 19.0907 90.9974 19.6109V38.8959C90.9974 39.4561 91.4375 39.8962 91.9977 39.8962C91.9977 39.8962 96.3588 39.8962 96.3988 39.8962C96.959 39.8962 97.199 39.8162 97.6391 39.176C98.2793 38.2958 103.521 30.9739 103.521 30.9739V38.8959C103.521 39.4561 103.961 39.8962 104.521 39.8962H110.403C110.963 39.8962 111.403 39.4561 111.403 38.8959V19.6109C111.403 19.0907 110.963 18.6106 110.403 18.6106Z" fill="#E9341B"/>
<path d="M145.925 11.8889H141.203C140.523 11.8889 140.203 12.129 139.723 12.7291C139.283 13.3293 131.201 24.4122 131.201 24.4122C131.201 24.4122 123.159 13.3293 122.718 12.7291C122.238 12.129 121.918 11.8889 121.238 11.8889H116.517C115.957 11.8889 115.517 12.369 115.517 12.8892V38.896C115.517 39.4562 115.957 39.8963 116.517 39.8963H122.759C123.319 39.8963 123.759 39.4562 123.759 38.896V26.5328C123.759 26.5328 127.72 32.2543 128.4 33.2145C129.16 34.3748 129.6 34.2548 129.92 34.2548C130.24 34.2548 132.161 34.2548 132.521 34.2548C132.841 34.2548 133.281 34.3748 134.041 33.2145C134.682 32.2543 138.643 26.5328 138.643 26.5328V38.896C138.643 39.4562 139.123 39.8963 139.643 39.8963H145.925C146.445 39.8963 146.925 39.4562 146.925 38.896V12.8892C146.925 12.369 146.445 11.8889 145.925 11.8889Z" fill="#28A267"/>
<path d="M169.491 31.6941C171.651 31.6941 171.851 31.014 171.851 29.2135C171.851 23.0519 168.13 18.0906 161.849 18.0906C154.647 18.0906 150.526 23.0519 150.526 29.2135C150.526 35.3751 154.687 40.3764 162.169 40.3764C164.93 40.3764 168.17 39.8963 170.491 38.4559C170.851 38.2159 171.131 37.7757 170.891 37.1356C170.691 36.6554 169.931 34.5749 169.771 34.1748C169.451 33.5746 168.891 33.5746 168.371 33.7747C166.93 34.4149 165.49 34.895 163.049 34.815C161.529 34.775 159.208 34.0948 158.408 31.6941C165.53 31.6941 168.611 31.6941 169.491 31.6941ZM161.849 23.612C163.729 23.612 164.69 25.2524 164.69 27.6931H158.248C158.248 25.2124 159.648 23.612 161.849 23.612Z" fill="#28A267"/>
<path d="M199.04 33.0145H197.24V19.651C197.24 19.1308 196.8 18.6507 196.239 18.6507H180.435C179.875 18.6507 179.435 19.1308 179.435 19.651C179.435 19.651 179.795 27.1729 178.195 31.014C177.915 31.6541 177.595 32.3343 177.234 33.0145H175.634C175.074 33.0145 174.634 33.4546 174.634 34.0147V44.7376C174.634 45.2977 175.074 45.7378 175.634 45.7378H181.516C182.076 45.7378 182.516 45.2977 182.516 44.7376V39.8963H192.118V44.7376C192.118 45.2977 192.598 45.7378 193.119 45.7378H199.04C199.56 45.7378 200 45.2977 200 44.7376V34.0147C200 33.4546 199.56 33.0145 199.04 33.0145ZM185.797 31.134C186.037 30.0137 186.317 27.7331 186.517 25.5325H189.358V33.0145H185.197C185.437 32.4143 185.637 31.7742 185.797 31.134Z" fill="#28A267"/>
</svg>
