<svg width="25" height="18" viewBox="0 0 25 18" fill="none" xmlns="http://www.w3.org/2000/svg">
<path d="M2.37661 0.867676C2.12745 0.867676 1.88984 0.917204 1.67272 1.00448L12.1417 10.3295C12.5065 10.6548 12.9114 10.6546 13.2756 10.3295L23.7245 1.00448C23.5074 0.917203 23.2698 0.867676 23.0206 0.867676H2.37644H2.37661ZM0.519418 2.4805C0.507636 2.56603 0.5 2.65548 0.5 2.74451V15.2561C0.5 15.5127 0.55411 15.7571 0.64662 15.9794L7.86984 9.03935L0.519418 2.4805ZM24.878 2.4805L17.5469 9.02955L24.7607 15.9696C24.8501 15.7501 24.8975 15.5083 24.8975 15.2561V2.74453C24.8975 2.65573 24.8896 2.56605 24.878 2.48052L24.878 2.4805ZM16.1394 10.2902L14.5266 11.7367C13.5013 12.6523 11.9155 12.6507 10.8903 11.7367L9.27743 10.2998L2.16146 17.1225C2.23106 17.1303 2.3048 17.1321 2.37659 17.1321H23.0207C23.089 17.1321 23.1597 17.129 23.2261 17.1225L16.1391 10.2903L16.1394 10.2902Z" fill="#E5E5E5"/>
</svg>
