<svg width="20" height="24" viewBox="0 0 20 24" fill="none" xmlns="http://www.w3.org/2000/svg">
<path fill-rule="evenodd" clip-rule="evenodd" d="M10.0002 0.804199C12.7991 0.804199 15.0661 3.07133 15.0661 5.87009C15.0661 8.66886 12.7989 10.936 10.0002 10.936C7.2014 10.936 4.93427 8.66886 4.93427 5.87009C4.93427 3.07133 7.2014 0.804199 10.0002 0.804199ZM10.0002 23.1954H10.1401C14.1946 23.1474 17.7769 21.1523 20 18.0975L19.4163 15.6424C19.2284 14.331 18.3767 13.4552 16.9734 12.9435L13.3187 11.8919C11.2675 13.0234 8.73261 13.0234 6.6813 11.8919L3.02665 12.9435C1.62327 13.4552 0.771445 14.331 0.583679 15.6424L0 18.0975C2.22303 21.1524 5.80572 23.1515 9.8599 23.1954H10.0002Z" fill="#E5E5E5"/>
</svg>
