<svg width="21" height="21" viewBox="0 0 21 21" fill="none" xmlns="http://www.w3.org/2000/svg">
<path d="M20.0786 17.9L18.5346 19.4441C17.8502 20.1285 16.9425 20.5007 15.9942 20.5007C15.8452 20.5007 15.6963 20.4911 15.5451 20.4718C12.3249 20.0732 8.7782 18.1449 5.81521 15.1818C2.852 12.2209 0.926048 8.67431 0.527694 5.45404C0.390847 4.34469 0.765377 3.25696 1.5578 2.4645L3.10181 0.920479C3.66375 0.358538 4.57864 0.358538 5.13809 0.920479L8.53349 4.31588C8.80484 4.58722 8.95609 4.94986 8.95609 5.33393C8.95609 5.71817 8.80718 6.08064 8.53349 6.35198L6.66539 8.22009L12.7788 14.3335L14.6469 12.4654C15.2088 11.9034 16.1212 11.9034 16.6831 12.4654L20.0785 15.8608C20.6405 16.4229 20.6405 17.3378 20.0785 17.8997L20.0786 17.9Z" fill="#E5E5E5"/>
</svg>
