<svg width="19" height="12" viewBox="0 0 19 12" fill="none" xmlns="http://www.w3.org/2000/svg">
<path d="M16.4327 8.35159C16.4327 8.35159 17.9253 9.82574 18.2945 10.5079C18.3017 10.5177 18.3073 10.5286 18.3112 10.5402C18.4616 10.7922 18.4985 10.9897 18.4247 11.1356C18.3001 11.3765 17.8782 11.4974 17.7352 11.5076H15.097C14.9133 11.5076 14.5312 11.4596 14.0659 11.1384C13.7105 10.89 13.357 10.4811 13.0145 10.0814C12.5032 9.48789 12.061 8.97282 11.6133 8.97282C11.5568 8.9727 11.5006 8.98206 11.4472 9.00051C11.1084 9.10759 10.6782 9.59035 10.6782 10.8762C10.6782 11.2787 10.3607 11.5076 10.1382 11.5076H8.92993C8.51824 11.5076 6.37485 11.3636 4.47424 9.35959C2.14531 6.90605 0.0536216 1.9842 0.0333139 1.94082C-0.09684 1.62236 0.176391 1.44882 0.471775 1.44882H3.13578C3.49301 1.44882 3.60931 1.66482 3.69054 1.85866C3.7847 2.08112 4.13362 2.97097 4.70593 3.97066C5.6327 5.59712 6.20224 6.25897 6.65731 6.25897C6.74281 6.25922 6.82687 6.23693 6.90101 6.19436C7.49547 5.86759 7.3847 3.74451 7.35701 3.30697C7.35701 3.22205 7.35608 2.35897 7.05147 1.94174C6.83362 1.64266 6.46254 1.52636 6.23824 1.48389C6.29824 1.39712 6.42562 1.2642 6.58901 1.18574C6.99608 0.982663 7.73177 0.953125 8.46193 0.953125H8.86716C9.65916 0.964202 9.86408 1.01497 10.1521 1.08789C10.7318 1.22636 10.7429 1.60205 10.6921 2.88143C10.6773 3.24697 10.6616 3.65866 10.6616 4.14328C10.6616 4.24666 10.657 4.36205 10.657 4.47928C10.6395 5.13559 10.6164 5.87497 11.0798 6.17866C11.1399 6.2161 11.2093 6.23593 11.2801 6.23589C11.4407 6.23589 11.9216 6.23589 13.2259 3.99743C13.7982 3.00882 14.2413 1.84297 14.2718 1.75528C14.2976 1.70636 14.3752 1.56882 14.4693 1.51343C14.5363 1.4778 14.6113 1.46 14.6872 1.46174H17.821C18.1625 1.46174 18.3942 1.51343 18.4395 1.64266C18.5152 1.8522 18.4247 2.49189 16.9939 4.42666C16.753 4.74882 16.5416 5.02759 16.3561 5.27128C15.0592 6.97343 15.0592 7.05928 16.4327 8.35159V8.35159Z" fill="white"/>
</svg>
